PathFileType	4	(X/Y/Z)	Patient4_TMGait_0pt5_01_right_05.trc.trc
DataRate	CameraRate	NumFrames	NumMarkers	Units	OrigDataRate	OrigDataStartFrame	OrigNumFrames
74.468085106383	74.468085106383	4	33	mm	74.468085106383	124	       141
Frame#	Time	L.ASIS			Sacral			L.Shoulder			Chest			R.Shoulder			Neck			R.ASIS			R.Thigh.Superior			R.Thigh.Lateral			R.Thigh.Inferior			R.Patella			L.Thigh.Superior			L.Thigh.Lateral			L.Thigh.Inferior			L.Patella			L.Shank.Superior			L.Shank.Lateral			L.Shank.Inferior			R.Shank.Superior			R.Shank.Lateral			R.Shank.Inferior			R.Heel			R.Midfoot.Superior			R.Midfoot.Lateral			R.Toe			L.Heel			L.Midfoot.Lateral			L.Midfoot.Superior			L.Toe			L.Elbow			L.Wrist			R.Elbow			R.Wrist			
		X1	Y1	Z1	X2	Y2	Z2	X3	Y3	Z3	X4	Y4	Z4	X5	Y5	Z5	X6	Y6	Z6	X7	Y7	Z7	X8	Y8	Z8	X9	Y9	Z9	X10	Y10	Z10	X11	Y11	Z11	X12	Y12	Z12	X13	Y13	Z13	X14	Y14	Z14	X15	Y15	Z15	X16	Y16	Z16	X17	Y17	Z17	X18	Y18	Z18	X19	Y19	Z19	X20	Y20	Z20	X21	Y21	Z21	X22	Y22	Z22	X23	Y23	Z23	X24	Y24	Z24	X25	Y25	Z25	X26	Y26	Z26	X27	Y27	Z27	X28	Y28	Z28	X29	Y29	Z29	X30	Y30	Z30	X31	Y31	Z31	X32	Y32	Z32	X33	Y33	Z33	

124	7.621714285714	740.488066531856	954.944487956570	328.143141919139	514.450368198894	995.105608319101	468.572471779777	701.169065572432	1432.178695446752	313.354230399182	784.977593944801	1357.069752495330	483.063959421950	681.044330289118	1425.362396914215	649.641462849628	685.774587724025	1488.625510902300	465.318228289585	733.395071696737	933.779558111282	603.256067559237	806.947177120048	754.249190215427	572.979579065889	750.091480427747	633.490464662240	635.970249385206	838.093417127771	595.072953889612	556.842979829801	862.665017961236	509.920333998269	565.336245179926	743.735973892516	725.944367544201	359.281492038131	632.673460089420	631.278995897840	289.951397688320	684.936528690574	538.988742953652	361.321861282488	667.350342080882	470.788343871713	372.165545446502	635.229749648638	404.544998424518	360.721391428838	537.207962666242	301.473346884593	303.073419705967	564.966866693834	186.722028896890	379.487036254115	846.490833591149	419.791088911346	573.620539787245	793.504786882334	307.790223460543	637.694174461103	853.902167019598	220.279773501960	579.723878873120	748.084152850210	42.829762955277	554.556897874379	915.936891587804	106.582234231695	586.845465477130	834.874409235025	37.947691141739	625.297040680365	1038.884593835774	62.546605539789	607.318672441737	418.857550145807	37.351998901269	409.738515923563	497.339483644707	35.062310242840	333.731705492323	579.640082044735	95.169844232177	365.770675683009	708.888987142252	41.863943236368	343.401185500003	738.810037499586	1092.783020583042	167.686955112474	981.920069150361	1019.375807118644	208.179422963983	553.947426549894	1098.853930829039	739.070403632147	560.595027549218	837.554876319183	747.049012847316	
125	7.635142857143	741.697906128485	954.078805358172	330.390249516161	515.857818658600	993.851782743685	471.358141601724	701.109498896812	1431.426957844544	316.604955651564	785.411767498058	1356.305687524609	486.053122433326	681.367538162995	1423.963748188020	652.803711458750	685.722925387811	1487.684061987271	468.736819668807	735.410300510972	932.670269352560	605.355513310217	809.564040009552	753.336596128044	574.320731451067	751.675934258937	632.280070693378	636.245996626868	840.329292567781	594.241697021051	557.786588209141	863.549897115024	507.781769512719	565.871741854306	744.111186051943	724.605912530082	360.648701219884	632.019871091713	630.412905218987	292.094518791191	684.415726807841	537.677297882636	362.899477279417	666.544008352279	468.868805512639	373.733740403964	633.157924715551	403.141553180374	362.197791943195	533.316495419542	301.741349096340	304.282272658527	559.571390204828	186.231711086802	380.072315448085	845.779412265198	417.106849543936	573.831322731373	790.273215749079	306.093591582018	637.721019908310	848.173336257722	217.297527167028	579.263337375930	737.659947025965	42.703889902653	554.518046599159	906.717097939327	103.401853771178	586.146272773447	824.274701316379	37.126204689270	625.489455611949	1029.105445701719	57.219390495849	607.116712448818	412.062310124927	37.704659246649	409.812530073655	490.602637380958	35.204897150599	333.887063226169	573.081638686637	95.157545184575	365.870649078935	702.220171813519	41.572417516644	343.340958250634	740.412120722075	1092.304809757348	170.562184686873	984.029353063611	1021.243197065418	211.894387001430	558.308821968520	1095.504638443448	742.161764071162	573.192907611758	834.351267412959	750.621931704804	
126	7.648571428571	742.838052400772	953.394005254735	332.665259691212	517.262450784510	992.782354320172	474.239030432767	701.057936960935	1430.876055997034	319.993855372080	785.930256354074	1355.690099095474	489.122891895779	681.867382766657	1422.683646108950	656.085246800460	685.793500581070	1486.928790938155	472.336187497162	737.519163424382	931.802687125110	607.471280742654	812.077414978797	752.442522034046	575.504139176569	753.362239932527	631.334521361534	636.579172392518	842.300771918240	593.488226066470	558.437515730571	864.336989955697	505.825618304475	566.220759635595	744.884994291522	723.500728127787	362.036392640968	631.963165996154	629.522385571424	294.418277231838	684.828494064968	536.408613687925	364.573606582712	666.850723157825	466.829255499136	375.310033692175	631.894030913138	401.662153751780	363.750688174061	529.981874428277	302.236165442289	305.607924346225	554.545782030464	185.871811513180	380.640418321590	845.073388238401	414.751501655586	573.947902758516	787.404482902097	304.638262097971	637.759762572909	842.858310847492	214.700034995044	578.714231887010	728.027578421347	42.598490798070	554.450308069461	898.075162361987	100.857218733135	585.402082454363	814.513306295687	36.562166969661	625.611682913132	1020.048299137271	52.920332539759	606.842538713854	405.337532654993	38.529288780637	409.879383721348	483.927026121388	35.565852530484	334.051539642536	566.725336581718	95.194023157590	365.920322758058	695.601298160856	41.177502680405	343.263465830469	741.629178586849	1091.885871125304	173.645981519852	985.547546817742	1022.324614199932	215.739166345402	563.025287629707	1092.289204247890	745.448835838834	586.414416894875	831.527734161637	754.440119305763	
127	7.662000000000	743.860069470125	952.940516259100	334.966791486841	518.629347883104	991.957605175763	477.198527665806	701.021836755492	1430.586729260691	323.475386151787	786.514848553903	1355.274764569399	492.236610356296	682.531359193067	1421.602748892646	659.447264725853	685.989674220203	1486.416931536387	476.060489758265	739.651921950191	931.236224815431	609.625397961094	814.366749146089	751.625391079223	576.580451297294	755.071769124419	630.690496308975	637.055576121707	843.873713234762	592.839422220871	558.844097232987	864.905685525154	504.122444913358	566.437690836132	746.063907785247	722.705787205717	363.484940693430	632.594225150463	628.642772566655	296.897331858023	686.292990083562	535.234686859355	366.317506118938	668.407826661329	464.727942121462	376.813703201972	631.550703500397	400.159577331679	365.322507935416	527.317200083775	303.043341702646	307.023201692926	549.992499007594	185.730082032006	381.153527606936	844.289812257125	412.789574593068	574.020685892878	784.867614256971	303.476121611745	637.857994637797	837.981445916633	212.570620481366	578.145538766890	719.354506469541	42.525071549782	554.376500432115	890.149347857466	98.997657907023	584.681894090510	805.754951056097	36.239904733342	625.675409981888	1011.848356628292	49.731353953989	606.542650035585	398.743994405667	40.025462733270	409.932115822684	477.349419677245	36.255433267610	334.216269455398	560.651623434479	95.314420020174	365.894963984632	689.034413494553	40.681488426171	343.173299733975	742.437155220225	1091.574087495588	176.941446544847	986.453705621372	1022.602465558082	219.697391328878	568.144696585655	1089.290885991880	748.928046363418	600.209192812919	829.209333790350	758.471893313876	
